<svg xmlns="http://www.w3.org/2000/svg" viewBox="0 0 1646.43 271.94"><defs><style>.cls-1{fill:#07588e;}</style></defs><g id="Layer_2" data-name="Layer 2"><g id="Layer_1-2" data-name="Layer 1"><path class="cls-1" d="M1490.53,149.91c0-5.23,2-9.27,5-14.49l10.11-17.18h11l-6.4,19.2a13.58,13.58,0,0,1-5.9,25.77C1496.93,163.21,1490.53,157.49,1490.53,149.91Z"/><path class="cls-1" d="M1526.14,230.76l33.52-35.54c9.6-10.11,14.15-14.49,14.15-21.73,0-5.73-4.21-9.6-10.61-9.6-7.75,0-12.13,6.06-14.66,13.47l-21.22-5.72c4-18,18.36-28.3,35.71-28.3,23.58,0,34.37,14,34.37,28.63,0,10.79-7.42,20.89-17.69,31.84l-2.53,2.7c-3.2,3.37-10.11,7.75-10.11,7.75s8.59-.85,11.63-.85h19.54v19.38h-72.1Z"/><path class="cls-1" d="M1623.35,163.72h-16.84V144.85h39.92v87.94h-23.08Z"/><polygon class="cls-1" points="1251.81 146.19 1281.97 146.19 1281.97 232.79 1312.57 232.79 1312.57 146.19 1342.73 146.19 1342.73 118.24 1251.81 118.24 1251.81 146.19"/><polygon class="cls-1" points="1402.33 204.84 1402.33 189.72 1444.77 189.72 1444.77 162.24 1402.33 162.24 1402.33 146.19 1450.52 146.19 1450.52 118.24 1371.73 118.24 1371.73 232.79 1452.7 232.79 1452.7 204.84 1402.33 204.84"/><polygon class="cls-1" points="686.62 189.72 729.07 189.72 729.07 162.24 686.62 162.24 686.62 146.19 734.82 146.19 734.82 118.24 656.03 118.24 656.03 232.79 737 232.79 737 204.84 686.62 204.84 686.62 189.72"/><polygon class="cls-1" points="796.59 118.24 766 118.24 766 232.79 844.48 232.79 844.48 204.84 796.59 204.84 796.59 118.24"/><polygon class="cls-1" points="904.07 189.72 946.52 189.72 946.52 162.24 904.07 162.24 904.07 146.19 952.27 146.19 952.27 118.24 873.48 118.24 873.48 232.79 954.45 232.79 954.45 204.84 904.07 204.84 904.07 189.72"/><polygon class="cls-1" points="1085.48 118.24 1055.36 118.24 1036.04 162.64 1016.21 118.24 983.95 118.24 1035.72 232.79 1085.48 118.24"/><polygon class="cls-1" points="1161.2 39.16 1077.09 232.79 1111.36 232.79 1161.2 118.24 1211.05 232.79 1245.32 232.79 1161.2 39.16"/><path class="cls-1" d="M147.06,39.16H33.5L0,232.79H74.62L79,189.21l21.78.28,3.82,43.3H180ZM80.88,148.63,90,80.82l8.3,67.81Z"/><rect class="cls-1" x="187.91" y="39.16" width="73.53" height="193.63"/><path class="cls-1" d="M312.1,39.16h97.22S442,43.24,442,68.84V97.16H369.29s1.63-16.61-9.81-16.61c0,0-10.07,0-10.07,10.35,0,0-3,7.63,12,13.07l58.83,26.15S442,138.83,442,160.62V196s1.47,36.77-40.58,36.77h-91s-33.49-3-33.49-34v-37H350.5v17.15s-.27,11.44,9,11.44c0,0,10.07-.27,10.07-11.43l.27-12.26s-.54-6.54-10.34-10.89L297.12,129.3S277,122,277,97.44V70.2S277.62,39.16,312.1,39.16Z"/><rect class="cls-1" x="544.02" width="10" height="271.94"/></g></g></svg>