<svg xmlns="http://www.w3.org/2000/svg" viewBox="0 0 835.08 207.73"><defs><style>.cls-1{fill:#fff;}</style></defs><g id="Layer_2" data-name="Layer 2"><g id="Layer_1-2" data-name="Layer 1"><path class="cls-1" d="M703.63,93.38c0-4.4,1.7-7.81,4.26-12.21l8.52-14.49h9.23l-5.39,16.19a11.48,11.48,0,1,1-16.62,10.51Z"/><path class="cls-1" d="M733.66,161.56l28.26-30c8.1-8.52,11.93-12.21,11.93-18.32,0-4.83-3.55-8.1-9-8.1-6.53,0-10.22,5.12-12.35,11.36l-17.9-4.82c3.41-15.2,15.48-23.87,30.11-23.87,19.89,0,29,11.79,29,24.15,0,9.09-6.25,17.61-14.92,26.84l-2.13,2.28c-2.7,2.84-8.52,6.53-8.52,6.53s7.24-.71,9.8-.71h16.48v16.33H733.66Z"/><path class="cls-1" d="M815.62,105h-14.2V89.12h33.66v74.14H815.62Z"/><path class="cls-1" d="M9.75,205.1h-5l-.93,2.32H0l5.31-13.84H9.24l5.21,13.84H10.61Zm-.95-2.74-1.56-4.49-1.51,4.49Z"/><path class="cls-1" d="M22,193.58v8.19a2.77,2.77,0,0,0,.71,2.14,2.56,2.56,0,0,0,1.7.67,2.62,2.62,0,0,0,1.66-.6,3.05,3.05,0,0,0,.81-2.52v-7.88H30.5v7.95A5.61,5.61,0,0,1,28.94,206a6,6,0,0,1-4.56,1.72,6.2,6.2,0,0,1-4.59-1.66,6.47,6.47,0,0,1-1.35-4.54v-7.95Z"/><path class="cls-1" d="M37.08,203.27a4.83,4.83,0,0,0,3.17,1.41,1.8,1.8,0,0,0,1.39-.48,1.22,1.22,0,0,0,.36-.87,1.09,1.09,0,0,0-.4-.83,5,5,0,0,0-1.78-.73l-.94-.29a4.38,4.38,0,0,1-2-1.12,3.5,3.5,0,0,1-.79-2.45,4.53,4.53,0,0,1,1.27-3.34,4.9,4.9,0,0,1,3.55-1.31,9.62,9.62,0,0,1,4.27,1.13l-1.43,2.8a3.68,3.68,0,0,0-2.36-.94,1.76,1.76,0,0,0-1.19.42,1,1,0,0,0-.35.75.9.9,0,0,0,.19.62,2.29,2.29,0,0,0,1.2.62l1.1.33a5.3,5.3,0,0,1,2.51,1.37,3.26,3.26,0,0,1,.89,2.47,4.71,4.71,0,0,1-1.3,3.49,5.39,5.39,0,0,1-4.09,1.41,7.3,7.3,0,0,1-2.72-.46,9.32,9.32,0,0,1-2.1-1.1Z"/><path class="cls-1" d="M56.15,196.63v10.79H52.56V196.63h-3v-3H59.1v3Z"/><path class="cls-1" d="M69.17,193.58a4.46,4.46,0,0,1,3.38,1.22,4.54,4.54,0,0,1,1.18,3.11,4,4,0,0,1-1.1,2.89,3.81,3.81,0,0,1-1.9.95l4.33,5.67H70.6l-3.44-5.31v5.31h-3.6V193.58Zm-2,6.2h.68a2.65,2.65,0,0,0,1.74-.56,1.71,1.71,0,0,0,.46-1.16,1.63,1.63,0,0,0-.48-1.16,2.43,2.43,0,0,0-1.72-.54h-.68Z"/><path class="cls-1" d="M88.61,205.1h-5l-.94,2.32h-3.8l5.32-13.84h3.92l5.21,13.84H89.46Zm-1-2.74-1.55-4.49-1.52,4.49Z"/><path class="cls-1" d="M101.37,193.58v10.79h4.31v3H97.77V193.58Z"/><path class="cls-1" d="M113.86,193.58v13.84h-3.59V193.58Z"/><path class="cls-1" d="M128.06,205.1h-5l-.93,2.32h-3.8l5.31-13.84h3.92l5.21,13.84h-3.84Zm-1-2.74-1.56-4.49L124,202.36Z"/><path class="cls-1" d="M137.82,193.58H141l-3.38,6.1h-2.14Z"/><path class="cls-1" d="M147.61,203.27a4.83,4.83,0,0,0,3.17,1.41,1.8,1.8,0,0,0,1.39-.48,1.22,1.22,0,0,0,.36-.87,1.09,1.09,0,0,0-.4-.83,5,5,0,0,0-1.78-.73l-.94-.29a4.38,4.38,0,0,1-2-1.12,3.5,3.5,0,0,1-.79-2.45,4.53,4.53,0,0,1,1.27-3.34,4.9,4.9,0,0,1,3.55-1.31,9.62,9.62,0,0,1,4.27,1.13l-1.43,2.8a3.68,3.68,0,0,0-2.36-.94,1.76,1.76,0,0,0-1.19.42,1,1,0,0,0-.35.75.9.9,0,0,0,.19.62,2.29,2.29,0,0,0,1.2.62l1.1.33a5.3,5.3,0,0,1,2.51,1.37,3.26,3.26,0,0,1,.89,2.47,4.71,4.71,0,0,1-1.3,3.49,5.39,5.39,0,0,1-4.09,1.41,7.3,7.3,0,0,1-2.72-.46,9.32,9.32,0,0,1-2.1-1.1Z"/><path class="cls-1" d="M172.78,193.58v10.79h4.32v3h-7.91V193.58Z"/><path class="cls-1" d="M189.55,196.63h-4.27v2.3h4.05v3h-4.05v2.39h4.27v3h-7.86V193.58h7.86Z"/><path class="cls-1" d="M203.47,205.1h-5l-.94,2.32h-3.8L199,193.58H203l5.21,13.84h-3.84Zm-.95-2.74L201,197.87l-1.52,4.49Z"/><path class="cls-1" d="M212.64,207.42V193.58h4.71a7.7,7.7,0,0,1,5.5,1.91,6.74,6.74,0,0,1,1.93,5,6.36,6.36,0,0,1-1.81,4.79,7.5,7.5,0,0,1-5.31,2.1Zm3.59-3H217a4.09,4.09,0,0,0,3-1,3.73,3.73,0,0,0,1.06-2.84,4.11,4.11,0,0,0-1.08-3,4,4,0,0,0-2.86-.87h-.87Z"/><path class="cls-1" d="M233.68,193.58v13.84h-3.59V193.58Z"/><path class="cls-1" d="M239.65,207.42V193.58h3.59l6.62,8.46v-8.46h3.59v13.84h-3.59L243.24,199v8.47Z"/><path class="cls-1" d="M266,199.57h7.14c0,2.74-.56,4.7-2.22,6.23a6.74,6.74,0,0,1-4.87,1.74,7.17,7.17,0,0,1-5.32-2,7,7,0,0,1-2-5,7.19,7.19,0,0,1,2.08-5.19,8,8,0,0,1,9.11-1.1A6.75,6.75,0,0,1,272.4,197L269,198.45a3.43,3.43,0,0,0-1-1.39,3,3,0,0,0-1.93-.68,3.36,3.36,0,0,0-2.37,1,4.67,4.67,0,0,0-1.2,3.18,4.32,4.32,0,0,0,1.1,3,3.28,3.28,0,0,0,2.53,1.06,3,3,0,0,0,2-.65,2.46,2.46,0,0,0,.85-1.53H266Z"/><path class="cls-1" d="M289.66,193.58v13.84h-3.59V193.58Z"/><path class="cls-1" d="M295.64,207.42V193.58h3.59l6.62,8.46v-8.46h3.59v13.84h-3.59L299.23,199v8.47Z"/><path class="cls-1" d="M315.46,207.42V193.58h4.71a7.7,7.7,0,0,1,5.5,1.91,6.74,6.74,0,0,1,1.93,5,6.36,6.36,0,0,1-1.81,4.79,7.5,7.5,0,0,1-5.31,2.1Zm3.59-3h.72a4.09,4.09,0,0,0,3-1,3.73,3.73,0,0,0,1.06-2.84,4.11,4.11,0,0,0-1.08-3,4,4,0,0,0-2.86-.87h-.87Z"/><path class="cls-1" d="M336.42,193.58v8.19a2.77,2.77,0,0,0,.71,2.14,2.56,2.56,0,0,0,1.7.67,2.62,2.62,0,0,0,1.66-.6,3.05,3.05,0,0,0,.81-2.52v-7.88h3.59v7.95a5.63,5.63,0,0,1-1.55,4.48,6,6,0,0,1-4.57,1.72,6.2,6.2,0,0,1-4.59-1.66,6.47,6.47,0,0,1-1.35-4.54v-7.95Z"/><path class="cls-1" d="M351.47,203.27a4.84,4.84,0,0,0,3.18,1.41,1.83,1.83,0,0,0,1.39-.48,1.26,1.26,0,0,0,.35-.87,1.06,1.06,0,0,0-.4-.83,5,5,0,0,0-1.78-.73l-.93-.29a4.36,4.36,0,0,1-2-1.12,3.5,3.5,0,0,1-.79-2.45,4.53,4.53,0,0,1,1.27-3.34,4.92,4.92,0,0,1,3.55-1.31,9.62,9.62,0,0,1,4.27,1.13l-1.43,2.8a3.68,3.68,0,0,0-2.36-.94,1.76,1.76,0,0,0-1.19.42,1.06,1.06,0,0,0-.35.75.9.9,0,0,0,.19.62,2.29,2.29,0,0,0,1.2.62l1.1.33a5.25,5.25,0,0,1,2.51,1.37,3.26,3.26,0,0,1,.89,2.47,4.71,4.71,0,0,1-1.3,3.49,5.38,5.38,0,0,1-4.09,1.41,7.3,7.3,0,0,1-2.72-.46,9.32,9.32,0,0,1-2.1-1.1Z"/><path class="cls-1" d="M370.54,196.63v10.79H367V196.63H364v-3h9.48v3Z"/><path class="cls-1" d="M383.56,193.58a4.44,4.44,0,0,1,3.38,1.22,4.55,4.55,0,0,1,1.19,3.11,4,4,0,0,1-1.1,2.89,3.84,3.84,0,0,1-1.91.95l4.33,5.67H385l-3.44-5.31v5.31H378V193.58Zm-2,6.2h.68a2.69,2.69,0,0,0,1.75-.56,1.7,1.7,0,0,0,.45-1.16,1.62,1.62,0,0,0-.47-1.16,2.48,2.48,0,0,0-1.73-.54h-.68Z"/><path class="cls-1" d="M397.48,193.58v13.84h-3.59V193.58Z"/><path class="cls-1" d="M411.68,205.1h-5l-.94,2.32h-3.79l5.31-13.84h3.92l5.21,13.84h-3.84Zm-.95-2.74-1.56-4.49-1.52,4.49Z"/><path class="cls-1" d="M424.44,193.58v10.79h4.32v3h-7.91V193.58Z"/><path class="cls-1" d="M442.16,203.27a4.84,4.84,0,0,0,3.18,1.41,1.83,1.83,0,0,0,1.39-.48,1.21,1.21,0,0,0,.35-.87,1.08,1.08,0,0,0-.39-.83,5.12,5.12,0,0,0-1.79-.73l-.93-.29a4.38,4.38,0,0,1-2-1.12,3.45,3.45,0,0,1-.79-2.45,4.53,4.53,0,0,1,1.26-3.34,4.92,4.92,0,0,1,3.55-1.31,9.7,9.7,0,0,1,4.28,1.13l-1.43,2.8a3.68,3.68,0,0,0-2.37-.94,1.73,1.73,0,0,0-1.18.42,1,1,0,0,0-.36.75,1,1,0,0,0,.19.62,2.29,2.29,0,0,0,1.2.62l1.1.33a5.28,5.28,0,0,1,2.52,1.37,3.3,3.3,0,0,1,.89,2.47,4.68,4.68,0,0,1-1.31,3.49,5.37,5.37,0,0,1-4.09,1.41,7.3,7.3,0,0,1-2.72-.46,9.12,9.12,0,0,1-2.09-1.1Z"/><path class="cls-1" d="M459.6,193.58v8.19a2.8,2.8,0,0,0,.7,2.14,2.59,2.59,0,0,0,1.71.67,2.64,2.64,0,0,0,1.66-.6,3,3,0,0,0,.8-2.52v-7.88h3.6v7.95a5.64,5.64,0,0,1-1.56,4.48,6,6,0,0,1-4.57,1.72,6.17,6.17,0,0,1-4.58-1.66,6.42,6.42,0,0,1-1.35-4.54v-7.95Z"/><path class="cls-1" d="M477.61,202.83v4.59H474V193.58h5.73a4.76,4.76,0,0,1,3.51,1.24,4.28,4.28,0,0,1,1.28,3.36,4.5,4.5,0,0,1-1.22,3.45,4.61,4.61,0,0,1-3.45,1.2Zm0-2.9h1.2a2.33,2.33,0,0,0,1.52-.44,1.6,1.6,0,0,0,.46-1.26,1.7,1.7,0,0,0-.42-1.25,2.09,2.09,0,0,0-1.54-.5h-1.22Z"/><path class="cls-1" d="M493,202.83v4.59H489.4V193.58h5.73a4.73,4.73,0,0,1,3.5,1.24,4.29,4.29,0,0,1,1.29,3.36,4.5,4.5,0,0,1-1.22,3.45,4.61,4.61,0,0,1-3.45,1.2Zm0-2.9h1.2a2.33,2.33,0,0,0,1.52-.44,1.58,1.58,0,0,0,.45-1.26,1.69,1.69,0,0,0-.41-1.25,2.11,2.11,0,0,0-1.54-.5H493Z"/><path class="cls-1" d="M508.37,193.58v10.79h4.32v3h-7.91V193.58Z"/><path class="cls-1" d="M520.86,193.58v13.84h-3.59V193.58Z"/><path class="cls-1" d="M534.7,196.63h-4.27v2.3h4v3h-4v2.39h4.27v3h-7.86V193.58h7.86Z"/><path class="cls-1" d="M545.94,193.58a4.48,4.48,0,0,1,3.39,1.22,4.54,4.54,0,0,1,1.18,3.11,4,4,0,0,1-1.1,2.89,3.84,3.84,0,0,1-1.91.95l4.34,5.67h-4.46l-3.45-5.31v5.31h-3.59V193.58Zm-2,6.2h.69a2.67,2.67,0,0,0,1.74-.56,1.71,1.71,0,0,0,.46-1.16,1.63,1.63,0,0,0-.48-1.16,2.43,2.43,0,0,0-1.72-.54h-.69Z"/><path class="cls-1" d="M557.17,203.27a4.84,4.84,0,0,0,3.18,1.41,1.83,1.83,0,0,0,1.39-.48,1.21,1.21,0,0,0,.35-.87,1.08,1.08,0,0,0-.39-.83,5.12,5.12,0,0,0-1.79-.73l-.93-.29a4.38,4.38,0,0,1-2-1.12,3.45,3.45,0,0,1-.79-2.45,4.53,4.53,0,0,1,1.26-3.34,4.92,4.92,0,0,1,3.55-1.31,9.7,9.7,0,0,1,4.28,1.13l-1.43,2.8a3.68,3.68,0,0,0-2.37-.94,1.73,1.73,0,0,0-1.18.42,1,1,0,0,0-.36.75,1,1,0,0,0,.19.62,2.29,2.29,0,0,0,1.2.62l1.1.33a5.28,5.28,0,0,1,2.52,1.37,3.3,3.3,0,0,1,.89,2.47,4.68,4.68,0,0,1-1.31,3.49,5.37,5.37,0,0,1-4.09,1.41,7.3,7.3,0,0,1-2.72-.46,9.12,9.12,0,0,1-2.09-1.1Z"/><path class="cls-1" d="M578.34,200.47h5.25v2.76h-5.25Z"/><path class="cls-1" d="M596.73,207.42V193.58h5.36a3.88,3.88,0,0,1,3,1.08,3.76,3.76,0,0,1,.85,2.59,3.6,3.6,0,0,1-.4,1.7,2.18,2.18,0,0,1-1.12,1.08,3,3,0,0,1,2.82,3.36,3.75,3.75,0,0,1-1,2.72,5.21,5.21,0,0,1-3.76,1.31Zm3.59-8.38H601a1.94,1.94,0,0,0,1.37-.44,1.38,1.38,0,0,0,.33-.91,1.47,1.47,0,0,0-.33-.94,1.91,1.91,0,0,0-1.37-.41h-.67Zm0,5.58h.81a3,3,0,0,0,2.22-.56,1.33,1.33,0,0,0,.29-.89,1.4,1.4,0,0,0-.35-1,3.34,3.34,0,0,0-2.22-.46h-.75Z"/><path class="cls-1" d="M616,193.58v8.19a2.8,2.8,0,0,0,.7,2.14,2.59,2.59,0,0,0,1.71.67A2.64,2.64,0,0,0,620,204a3,3,0,0,0,.8-2.52v-7.88h3.6v7.95a5.64,5.64,0,0,1-1.56,4.48,6,6,0,0,1-4.57,1.72,6.17,6.17,0,0,1-4.58-1.66,6.42,6.42,0,0,1-1.35-4.54v-7.95Z"/><path class="cls-1" d="M633.72,200.78l-5-7.2H633l2.62,3.77,2.51-3.77h4.36l-5.17,7.2v6.64h-3.61Z"/><path class="cls-1" d="M650.37,193.58v13.84h-3.59V193.58Z"/><path class="cls-1" d="M656.34,207.42V193.58h3.59l6.63,8.46v-8.46h3.59v13.84h-3.59L659.93,199v8.47Z"/><path class="cls-1" d="M682.7,199.57h7.14c0,2.74-.56,4.7-2.22,6.23a6.77,6.77,0,0,1-4.88,1.74,7.15,7.15,0,0,1-5.31-2,7,7,0,0,1-2-5,7.23,7.23,0,0,1,2.08-5.19,8,8,0,0,1,9.11-1.1,6.75,6.75,0,0,1,2.47,2.84l-3.42,1.41a3.44,3.44,0,0,0-1-1.39,2.94,2.94,0,0,0-1.93-.68,3.38,3.38,0,0,0-2.37,1,4.67,4.67,0,0,0-1.2,3.18,4.37,4.37,0,0,0,1.1,3,3.28,3.28,0,0,0,2.53,1.06,3,3,0,0,0,2-.65,2.46,2.46,0,0,0,.86-1.53H682.7Z"/><path class="cls-1" d="M703.68,203.27a4.84,4.84,0,0,0,3.18,1.41,1.83,1.83,0,0,0,1.39-.48,1.26,1.26,0,0,0,.35-.87,1.08,1.08,0,0,0-.39-.83,5.12,5.12,0,0,0-1.79-.73l-.93-.29a4.41,4.41,0,0,1-2-1.12,3.5,3.5,0,0,1-.79-2.45,4.53,4.53,0,0,1,1.27-3.34,4.92,4.92,0,0,1,3.55-1.31,9.7,9.7,0,0,1,4.28,1.13l-1.44,2.8a3.68,3.68,0,0,0-2.36-.94,1.76,1.76,0,0,0-1.19.42,1.06,1.06,0,0,0-.35.75.9.9,0,0,0,.19.62,2.29,2.29,0,0,0,1.2.62l1.1.33a5.25,5.25,0,0,1,2.51,1.37,3.27,3.27,0,0,1,.9,2.47,4.72,4.72,0,0,1-1.31,3.49,5.38,5.38,0,0,1-4.09,1.41,7.3,7.3,0,0,1-2.72-.46,9.32,9.32,0,0,1-2.1-1.1Z"/><path class="cls-1" d="M721.25,198.74h5.18v-5.16h3.62v13.84h-3.62v-5.6h-5.18v5.6h-3.6V193.58h3.6Z"/><path class="cls-1" d="M748.42,205.68a8.3,8.3,0,0,1-10.92,0,7.24,7.24,0,0,1,0-10.36,8.27,8.27,0,0,1,10.92,0,7.24,7.24,0,0,1,0,10.36Zm-8.26-7.83a3.8,3.8,0,0,0-1.1,2.72,3.48,3.48,0,0,0,1.1,2.57,3.9,3.9,0,0,0,2.8,1.11,3.76,3.76,0,0,0,3.9-3.74,3.71,3.71,0,0,0-1.12-2.66,4.17,4.17,0,0,0-2.78-1.1A4,4,0,0,0,740.16,197.85Z"/><path class="cls-1" d="M757.83,193.58l2.4,8.94,2.93-8.94H766l2.71,8.94,2.62-8.94h3.76l-4.42,13.84H767l-2.51-8-2.66,8H758.2l-4.13-13.84Z"/><path class="cls-1" d="M789.09,207.05a8.49,8.49,0,0,1-3.11.68,7.55,7.55,0,0,1-5.36-2.07,7.31,7.31,0,0,1-2.09-5,7.26,7.26,0,0,1,7.32-7.26,8.56,8.56,0,0,1,3.24.7v4.3a3.85,3.85,0,0,0-3.13-1.51,3.5,3.5,0,0,0-2.49.91,3.88,3.88,0,0,0-1.21,2.84,3.83,3.83,0,0,0,1.12,2.7,3.9,3.9,0,0,0,2.58,1,4.07,4.07,0,0,0,3.13-1.46Z"/><path class="cls-1" d="M803,205.1h-5l-.93,2.32h-3.8l5.32-13.84h3.92l5.21,13.84h-3.84Zm-1-2.74-1.56-4.49L799,202.36Z"/><path class="cls-1" d="M813.24,203.27a4.86,4.86,0,0,0,3.18,1.41,1.81,1.81,0,0,0,1.39-.48,1.21,1.21,0,0,0,.35-.87,1.08,1.08,0,0,0-.39-.83,5,5,0,0,0-1.79-.73l-.93-.29a4.38,4.38,0,0,1-2-1.12,3.45,3.45,0,0,1-.79-2.45,4.49,4.49,0,0,1,1.27-3.34,4.87,4.87,0,0,1,3.54-1.31,9.7,9.7,0,0,1,4.28,1.13l-1.43,2.8a3.68,3.68,0,0,0-2.37-.94,1.73,1.73,0,0,0-1.18.42,1,1,0,0,0-.35.75,1,1,0,0,0,.18.62,2.4,2.4,0,0,0,1.21.62l1.1.33a5.3,5.3,0,0,1,2.51,1.37,3.3,3.3,0,0,1,.89,2.47,4.68,4.68,0,0,1-1.31,3.49,5.37,5.37,0,0,1-4.09,1.41,7.22,7.22,0,0,1-2.71-.46,9.32,9.32,0,0,1-2.1-1.1Z"/><path class="cls-1" d="M835.08,196.63h-4.27v2.3h4.05v3h-4.05v2.39h4.27v3h-7.86V193.58h7.86Z"/><polygon class="cls-1" points="502.35 90.25 527.78 90.25 527.78 163.26 553.58 163.26 553.58 90.25 579.01 90.25 579.01 66.68 502.35 66.68 502.35 90.25"/><polygon class="cls-1" points="629.26 139.7 629.26 126.95 665.05 126.95 665.05 103.78 629.26 103.78 629.26 90.25 669.9 90.25 669.9 66.68 603.46 66.68 603.46 163.26 671.73 163.26 671.73 139.7 629.26 139.7"/><polygon class="cls-1" points="25.8 126.95 61.58 126.95 61.58 103.78 25.8 103.78 25.8 90.25 66.44 90.25 66.44 66.68 0 66.68 0 163.26 68.27 163.26 68.27 139.7 25.8 139.7 25.8 126.95"/><polygon class="cls-1" points="118.52 66.68 92.72 66.68 92.72 163.26 158.9 163.26 158.9 139.7 118.52 139.7 118.52 66.68"/><polygon class="cls-1" points="209.14 126.95 244.93 126.95 244.93 103.78 209.14 103.78 209.14 90.25 249.78 90.25 249.78 66.68 183.35 66.68 183.35 163.26 251.62 163.26 251.62 139.7 209.14 139.7 209.14 126.95"/><polygon class="cls-1" points="362.1 66.68 336.71 66.68 320.42 104.12 303.7 66.68 276.5 66.68 320.14 163.26 362.1 66.68"/><polygon class="cls-1" points="425.95 0 355.03 163.26 383.93 163.26 425.95 66.68 467.98 163.26 496.87 163.26 425.95 0"/></g></g></svg>